Toy Story 3 (2010) 1080p X264 MKV AC3+DTS NLSubs

PLOT

The toys are mistakenly delivered to a day-care center 
instead of the attic right before Andy leaves for college, 
and it's up to Woody to convince the other toys that 
they weren't abandoned and to return home. 
 
http://www.youtube.com/watch?v=v_FfHA5whXc

MM:    http://www.moviemeter.nl/film/49471

IMDB:    http://www.imdb.com/title/tt0435761/

INFO

SOURCE....: 1080p BluRay
GENRE.....: Animatie / Avontuur
SUBTITLES : Dutch (selectable)
AUDIO 1...: AC3
Audio 2...: DTS
VIDEO.....: 1920x1080

Enjoy this nice release

PLAYER INFO

General
Complete name                    : Y:\monstie-tosto31080\Toy.Story.3.1080p.NL.BluRay.X264-MONSTiE.mkv
Format                           : Matroska
File size                        : 8.41 GiB
Duration                         : 1h 42mn
Overall bit rate                 : 11.7 Mbps
Encoded date                     : UTC 2010-10-14 14:28:04
Writing application              : mkvmerge v4.3.0 ('Escape from the Island') built on Sep  5 2010 10:30:51
Writing library                  : libebml v1.0.0 + libmatroska v1.0.0

Video
ID                               : 1
Format                           : AVC
Format/Info                      : Advanced Video Codec
Format profile                   : High@L4.1
Format settings, CABAC           : Yes
Format settings, ReFrames        : 3 frames
Muxing mode                      : Container profile=Unknown@4.1
Codec ID                         : V_MPEG4/ISO/AVC
Duration                         : 1h 42mn
Bit rate                         : 9 586 Kbps
Width                            : 1 920 pixels
Height                           : 1 080 pixels
Display aspect ratio             : 16:9
Frame rate                       : 23.976 fps
Color space                      : YUV
Chroma subsampling               : 4:2:0
Bit depth                        : 8 bits
Scan type                        : Progressive
Bits/(Pixel*Frame)               : 0.193
Stream size                      : 6.70 GiB (80%)
Writing library                  : x264 core 107 r1745 4785e8e
Encoding settings                : cabac=1 / ref=4 / deblock=1:0:0 / analyse=0x3:0x133 / me=umh / subme=7 / psy=1 / psy_rd=1.00:0.20 / mixed_ref=1 / me_range=16 / chroma_me=1 / trellis=1 / 8x8dct=1 / cqm=0 / deadzone=21,11 / fast_pskip=1 / chroma_qp_offset=-6 / threads=12 / sliced_threads=0 / nr=0 / decimate=1 / interlaced=0 / constrained_intra=0 / bframes=3 / b_pyramid=1 / b_adapt=1 / b_bias=0 / direct=3 / weightb=1 / open_gop=0 / weightp=0 / keyint=250 / keyint_min=23 / scenecut=40 / intra_refresh=0 / rc_lookahead=40 / rc=2pass / mbtree=1 / bitrate=9586 / ratetol=1.0 / qcomp=0.60 / qpmin=10 / qpmax=51 / qpstep=4 / cplxblur=20.0 / qblur=0.5 / ip_ratio=1.40 / aq=1:1.00
Language                         : English

Audio #1
ID                               : 2
Format                           : AC-3
Format/Info                      : Audio Coding 3
Mode extension                   : CM (complete main)
Codec ID                         : A_AC3
Duration                         : 1h 42mn
Bit rate mode                    : Constant
Bit rate                         : 640 Kbps
Channel(s)                       : 6 channels
Channel positions                : Front: L C R, Side: L R, LFE
Sampling rate                    : 48.0 KHz
Bit depth                        : 16 bits
Stream size                      : 469 MiB (5%)
Title                            : AC3

Audio #2
ID                               : 3
Format                           : DTS
Format/Info                      : Digital Theater Systems
Format profile                   : ES
Codec ID                         : A_DTS
Duration                         : 1h 42mn
Bit rate mode                    : Constant
Bit rate                         : 1 510 Kbps
Channel(s)                       : 6 channels
Channel positions                : Front: L C R, Side: L R, LFE
Sampling rate                    : 48.0 KHz
Bit depth                        : 24 bits
Stream size                      : 1.08 GiB (13%)
Title                            : DTS

Text
ID                               : 4
Format                           : UTF-8
Codec ID                         : S_TEXT/UTF8
Codec ID/Info                    : UTF-8 Plain Text
Title                            : Nederlands
Language                         : Dutch


